<svg width="20" height="18" viewBox="0 0 20 18" fill="none" xmlns="http://www.w3.org/2000/svg">
<path d="M15 5.5C15 6.32843 14.3284 7 13.5 7C12.6716 7 12 6.32843 12 5.5C12 4.67157 12.6716 4 13.5 4C14.3284 4 15 4.67157 15 5.5Z" fill="#09244B"/>
<path fill-rule="evenodd" clip-rule="evenodd" d="M0 2C0 0.895431 0.895431 0 2 0H18C19.1046 0 20 0.89543 20 2V16C20 17.1046 19.1046 18 18 18H2C0.895432 18 0 17.1046 0 16V2ZM18 2H2V12.1003L6.99463 7.10571C7.48279 6.61755 8.27424 6.61755 8.7624 7.10571L12.8283 11.1716L14.0657 9.93414C14.5539 9.44598 15.3453 9.44598 15.8335 9.93414L18 12.1007V2ZM18 14.8747C17.9204 14.8306 17.8456 14.7747 17.778 14.7071L14.9496 11.8787L13.7121 13.1161C13.224 13.6043 12.4325 13.6043 11.9444 13.1161L7.87852 9.05025L2.22166 14.7071C2.15418 14.7746 2.07946 14.8304 2 14.8746V16H18V14.8747Z" fill="#09244B"/>
</svg>
