<svg width="19" height="19" viewBox="0 0 19 19" fill="none" xmlns="http://www.w3.org/2000/svg">
<path fill-rule="evenodd" clip-rule="evenodd" d="M17.4851 5.75731C18.6567 4.58573 18.6567 2.68624 17.4851 1.51467C16.3136 0.343093 14.4141 0.343093 13.2425 1.51467L1.2431 13.5141C1.08954 13.6676 0.984868 13.8632 0.942278 14.0762L0.244052 17.5673C0.102711 18.274 0.725779 18.8971 1.43252 18.7558L4.92365 18.0575C5.1366 18.0149 5.33218 17.9103 5.48574 17.7567L6.86946 16.373L6.87867 16.3639L6.88776 16.3547L15.3639 7.87857L16.071 8.58573L11.8284 12.8284C11.4379 13.2189 11.4379 13.8521 11.8284 14.2426C12.2189 14.6331 12.8521 14.6331 13.2426 14.2426L17.4853 9.99995C18.2663 9.2189 18.2663 7.95257 17.4853 7.17152L16.7781 6.46436L17.4851 5.75731ZM15.3639 5.05014L16.0709 4.34309C16.4615 3.95257 16.4615 3.3194 16.0709 2.92888C15.6804 2.53836 15.0472 2.53836 14.6567 2.92888L13.9497 3.63593L15.3639 5.05014ZM12.5355 5.05014L4.75729 12.8283L6.1715 14.2425L13.9497 6.46436L12.5355 5.05014ZM4.26421 16.1498L4.75729 15.6567L3.34307 14.2425L2.85 14.7356L2.49645 16.5034L4.26421 16.1498Z" fill="#09244B"/>
</svg>
